<svg xmlns="http://www.w3.org/2000/svg" viewBox="0 0 32 40" x="0px" y="0px"><title>Photography, plus, gallery, photo, add, image, picture</title><g data-name="Image Plus"><path d="M24,15.71v.79a.5.5,0,0,0,1,0v-9A2.5,2.5,0,0,0,22.5,5H5.5A2.5,2.5,0,0,0,3,7.5v13A2.5,2.5,0,0,0,5.5,23h13a.5.5,0,0,0,0-1H5.5A1.5,1.5,0,0,1,4,20.5v-.79l6.48-6.52,3.16,3.16h0l2.5,2.49a.49.49,0,0,0,.7-.7L14.71,16l4.78-4.8ZM19.49,10a.51.51,0,0,0-.36.15L14,15.29l-3.17-3.16a.47.47,0,0,0-.35-.15h0a.47.47,0,0,0-.35.15L4,18.29V7.5A1.5,1.5,0,0,1,5.5,6h17A1.5,1.5,0,0,1,24,7.5v6.79l-4.16-4.15a.47.47,0,0,0-.35-.15ZM16,10a1,1,0,1,1-1-1A1,1,0,0,1,16,10Zm8.5,8A4.5,4.5,0,1,0,29,22.5,4.51,4.51,0,0,0,24.5,18Zm0,8A3.5,3.5,0,1,1,28,22.5,3.5,3.5,0,0,1,24.5,26ZM26,22.5a.5.5,0,0,1-.5.5H25v.5a.5.5,0,0,1-1,0V23h-.5a.5.5,0,0,1,0-1H24v-.5a.5.5,0,0,1,1,0V22h.5A.5.5,0,0,1,26,22.5Z"/></g><text x="0" y="47" fill="#000000" font-size="5px" font-weight="bold" font-family="'Helvetica Neue', Helvetica, Arial-Unicode, Arial, Sans-serif">Created by Kmg Design</text><text x="0" y="52" fill="#000000" font-size="5px" font-weight="bold" font-family="'Helvetica Neue', Helvetica, Arial-Unicode, Arial, Sans-serif">from the Noun Project</text></svg>