<?xml version="1.0" encoding="utf-8"?>
<!-- Generator: Adobe Illustrator 25.2.1, SVG Export Plug-In . SVG Version: 6.00 Build 0)  -->
<svg version="1.1" id="Layer_1" xmlns="http://www.w3.org/2000/svg" xmlns:xlink="http://www.w3.org/1999/xlink" x="0px" y="0px"
	 viewBox="0 0 1000 1000" style="enable-background:new 0 0 1000 1000;" xml:space="preserve">
<g>
	<path d="M112.1,268.9h20.4v-46c0-11.2,9.1-20.2,20.2-20.2h110.2c11.2,0,20.2,9.1,20.2,20.2v46H326l67.1-76.6
		c4-4.6,9.6-6.9,15.2-6.9v-0.1h183.4c6.7,0,12.6,3.2,16.3,8.2l66,75.4h214c11.2,0,20.2,9.1,20.2,20.2v505.3
		c0,11.2-9.1,20.2-20.2,20.2H112c-11.2,0-20.2-9.1-20.2-20.2V289.1C91.8,278,100.9,268.9,112.1,268.9L112.1,268.9z M671.6,541.8
		c0,52.3-23.4,99.4-60.9,131.1h257V410.7h-257C648.2,442.4,671.6,489.6,671.6,541.8z M328.4,541.8c0-52.2,23.4-99.4,60.9-131.1h-257
		v262.3h257C351.8,641.2,328.4,594.1,328.4,541.8z M500,410.7c-72.4,0-131.1,58.7-131.1,131.1c0,72.4,58.7,131.1,131.1,131.1
		s131.1-58.7,131.1-131.1C631.1,469.4,572.4,410.7,500,410.7L500,410.7z M172.9,268.9h69.8v-25.7h-69.8V268.9z M379.6,268.9h240.8
		l-37.8-43.1H417.4L379.6,268.9L379.6,268.9z M500,370.2h367.7v-60.8H132.3v60.8H500L500,370.2z M867.7,713.4H132.3v60.8h735.4
		V713.4z"/>
</g>
</svg>
