<?xml version="1.0" encoding="utf-8"?>
<!-- Generator: Adobe Illustrator 25.2.1, SVG Export Plug-In . SVG Version: 6.00 Build 0)  -->
<svg version="1.1" id="Layer_1" xmlns="http://www.w3.org/2000/svg" xmlns:xlink="http://www.w3.org/1999/xlink" x="0px" y="0px"
	 viewBox="0 0 30 30" style="enable-background:new 0 0 30 30;" xml:space="preserve">
<style type="text/css">
	.st0{fill:none;stroke:#000000;stroke-miterlimit:10;}
</style>
<g>
	<path class="st0" d="M21.2,3.6C17,0.2,10.9,0.8,7.5,4.9c-2.8,3.4-3,8.2-0.4,11.8l0.5,0.7c1.4,2,2.9,4.1,4.3,6.3
		c0.5,0.9,1,1.8,1.5,2.7l1.1,1.9c0.1,0.2,0.3,0.3,0.6,0.3l0,0c0.2,0,0.4-0.1,0.6-0.3l0.2-0.4c0.7-1.3,1.5-2.7,2.5-4.2
		c1.6-2.6,3.3-5,4.7-7C25.9,12.5,25.1,6.8,21.2,3.6z M15,15.6c-2.5,0-4.6-2-4.6-4.5s2-4.6,4.6-4.6s4.6,2,4.6,4.6S17.5,15.6,15,15.6z
		"/>
</g>
</svg>
